<svg xmlns="http://www.w3.org/2000/svg" version="1.1" xmlns:xlink="http://www.w3.org/1999/xlink" xmlns:svgjs="http://svgjs.dev/svgjs" width="1000" height="227" viewBox="0 0 1000 227"><g transform="matrix(1,0,0,1,-0.6060597844991094,-0.0945539646944411)"><svg viewBox="0 0 396 90" data-background-color="#ffffff" preserveAspectRatio="xMidYMid meet" height="227" width="1000" xmlns="http://www.w3.org/2000/svg" xmlns:xlink="http://www.w3.org/1999/xlink"><g id="tight-bounds" transform="matrix(1,0,0,1,0.24000032533831472,0.03748835604625356)"><svg viewBox="0 0 395.52 89.92502328790752" height="89.92502328790752" width="395.52"><g><svg viewBox="0 0 395.52000000000004 89.92502328790754" height="89.92502328790752" width="395.52"><g><svg viewBox="0 0 395.52000000000004 89.92502328790754" height="89.92502328790754" width="395.52000000000004"><g><svg viewBox="0 0 395.52000000000004 89.92502328790754" height="89.92502328790754" width="395.52000000000004"><g><svg viewBox="0 0 395.52000000000004 89.92502328790754" height="89.92502328790754" width="395.52000000000004"><g transform="matrix(1,0,0,1,0,0)"><svg width="395.52000000000004" viewBox="4.000000476837158 -29.450000762939453 289.8500061035156 62.90000534057617" height="89.92502328790754" data-palette-color="#4d7e3e"><svg></svg><svg></svg><g class="undefined-text-0" data-fill-palette-color="primary" id="text-0"><path xmlns="http://www.w3.org/2000/svg" d="M10.6 0h-6.6v-29.4h6.6v12.2h19.6v-12.2h6.6v29.4h-6.6v-12.4h-19.6zM72.1 0h-27.3v-29.4h31.1v4.8h-24.5v6.9h18.7v4.95h-18.7v7.95h24.7l2 4.25c0 0.133-0.45 0.257-1.35 0.37-0.9 0.12-2.45 0.18-4.65 0.18zM90.2 0h-6.6v-25.4l-0.5-4h7.2l17 17.8 1.95 2.7h0.55v-20.5h6.6v29.4h-6.35l-17.4-18.1-1.95-2.35h-0.5zM147.6 0h-22.7v-25.4l-0.5-4h23.2c2.7 0 4.777 0.333 6.23 1 1.447 0.667 2.453 1.657 3.02 2.97 0.567 1.32 0.85 2.963 0.85 4.93v0 11.55c0 2-0.273 3.657-0.82 4.97-0.553 1.32-1.553 2.313-3 2.98-1.453 0.667-3.547 1-6.28 1zM131.5-24.6v19.8h15.7c2.567 0 3.867-1.183 3.9-3.55v0-12.75c0-0.967-0.283-1.793-0.85-2.48-0.567-0.68-1.583-1.02-3.05-1.02v0zM196.65 0.5v0c-1.333 0-2.64-0.21-3.92-0.63-1.287-0.413-2.747-1.437-4.38-3.07v0l-3.6-3.6c-1.467-1.5-3.073-2.6-4.82-3.3-1.753-0.7-3.947-1.05-6.58-1.05v0h-1.55v11.15h-6.6v-25.4l-0.5-4.05h22.15c2.133 0 3.81 0.283 5.03 0.85 1.213 0.567 2.113 1.307 2.7 2.22 0.58 0.92 0.953 1.897 1.12 2.93 0.167 1.033 0.25 2.017 0.25 2.95v0 0.95c0 0.733-0.1 1.55-0.3 2.45-0.2 0.9-0.583 1.783-1.15 2.65-0.567 0.867-1.373 1.6-2.42 2.2-1.053 0.6-2.43 0.95-4.13 1.05v0c0.433 0.233 0.983 0.59 1.65 1.07 0.667 0.487 1.36 1.013 2.08 1.58 0.713 0.567 1.37 1.083 1.97 1.55 0.6 0.467 1.067 0.8 1.4 1v0c1.2 0.7 2.267 1.183 3.2 1.45 0.933 0.267 1.7 0.417 2.3 0.45 0.6 0.033 0.95 0.05 1.05 0.05v0l-1 4.05c-0.3 0.1-0.8 0.21-1.5 0.33-0.7 0.113-1.517 0.17-2.45 0.17zM179.3-15.7v0c1.267 0 2.4-0.027 3.4-0.08 1-0.047 1.9-0.103 2.7-0.17v0c1.467-0.167 2.493-0.577 3.08-1.23 0.58-0.647 0.87-1.487 0.87-2.52v0-1.15c0-1.067-0.283-1.967-0.85-2.7-0.567-0.733-1.583-1.1-3.05-1.1v0h-13.65v8.7c1.467 0.1 2.817 0.167 4.05 0.2 1.233 0.033 2.383 0.05 3.45 0.05zM212.7 0h-6.6v-29.4h6.6zM243.25 0h-13.9c-2.367 0-4.217-0.333-5.55-1-1.333-0.667-2.267-1.667-2.8-3-0.533-1.333-0.8-2.983-0.8-4.95v0-11.15c0-3.2 0.717-5.56 2.15-7.08 1.433-1.513 3.767-2.27 7-2.27v0h15.05c2.3 0 4.06 0.123 5.28 0.37 1.213 0.253 1.82 0.513 1.82 0.78v0l-1 4.15c-0.567-0.1-2.24-0.21-5.02-0.33-2.787-0.113-6.83-0.17-12.13-0.17v0h-2.55c-2.667 0-4 1.183-4 3.55v0 12.75c0 1.133 0.293 2.007 0.88 2.62 0.58 0.62 1.62 0.93 3.12 0.93v0h2.05c5.533 0 9.827-0.06 12.88-0.18 3.047-0.113 4.937-0.237 5.67-0.37v0l2.05 3.3c0 0.167-0.273 0.417-0.82 0.75-0.553 0.333-1.563 0.633-3.03 0.9-1.467 0.267-3.583 0.4-6.35 0.4zM289.8 0.5v0c-1.633 0-3.05-0.333-4.25-1-1.2-0.667-2.383-1.567-3.55-2.7v0c-1.267-1.333-2.8-2.867-4.6-4.6v0c-0.833-0.867-1.683-1.583-2.55-2.15-0.867-0.567-1.84-1-2.92-1.3-1.087-0.3-2.43-0.45-4.03-0.45v0h-2.35v11.7h-6.6v-25.4l-0.5-4h7.1v12.8h2.8c0.667 0 1.217-0.083 1.65-0.25 0.433-0.167 0.833-0.433 1.2-0.8v0c0.933-0.933 2-2.1 3.2-3.5 1.2-1.4 2.377-2.843 3.53-4.33 1.147-1.48 2.137-2.787 2.97-3.92v0h8.1l-2.05 3c-0.933 0.967-1.933 2.017-3 3.15-1.067 1.133-2.117 2.24-3.15 3.32-1.033 1.087-1.967 2.04-2.8 2.86-0.833 0.813-1.45 1.403-1.85 1.77v0c0.9 0.3 1.727 0.683 2.48 1.15 0.747 0.467 1.67 1.15 2.77 2.05v0c0.833 0.667 1.643 1.35 2.43 2.05 0.78 0.7 1.687 1.533 2.72 2.5v0c1.167 1.067 2.267 1.85 3.3 2.35 1.033 0.5 1.91 0.817 2.63 0.95 0.713 0.133 1.17 0.2 1.37 0.2v0l-1 4.05c-0.1 0.1-0.4 0.21-0.9 0.33-0.5 0.113-1.217 0.17-2.15 0.17z" fill="#4d7e3e" fill-rule="nonzero" stroke="none" stroke-width="1" stroke-linecap="butt" stroke-linejoin="miter" stroke-miterlimit="10" stroke-dasharray="" stroke-dashoffset="0" font-family="none" font-weight="none" font-size="none" text-anchor="none" style="mix-blend-mode: normal" data-fill-palette-color="primary" opacity="1"></path><path xmlns="http://www.w3.org/2000/svg" d="M10.6 32.95h-6.6v-29.4h6.6v12.2h19.6v-12.2h6.6v29.4h-6.6v-12.4h-19.6zM51.4 32.95h-6.6v-29.4h6.6zM81.95 32.95h-13.9c-2.367 0-4.217-0.333-5.55-1-1.333-0.667-2.267-1.667-2.8-3-0.533-1.333-0.8-2.983-0.8-4.95v0-11.15c0-3.2 0.717-5.56 2.15-7.08 1.433-1.513 3.767-2.27 7-2.27v0h15.05c2.3 0 4.06 0.123 5.28 0.37 1.213 0.253 1.82 0.513 1.82 0.78v0l-1 4.15c-0.567-0.1-2.24-0.21-5.02-0.33-2.787-0.113-6.83-0.17-12.13-0.17v0h-2.55c-2.667 0-4 1.183-4 3.55v0 12.75c0 1.133 0.293 2.007 0.88 2.62 0.58 0.62 1.62 0.93 3.12 0.93v0h2.05c5.533 0 9.827-0.06 12.88-0.18 3.047-0.113 4.937-0.237 5.67-0.37v0l2.05 3.3c0 0.167-0.273 0.417-0.82 0.75-0.553 0.333-1.563 0.633-3.03 0.9-1.467 0.267-3.583 0.4-6.35 0.4zM128.5 33.45v0c-1.633 0-3.05-0.333-4.25-1-1.2-0.667-2.383-1.567-3.55-2.7v0c-1.267-1.333-2.8-2.867-4.6-4.6v0c-0.833-0.867-1.683-1.583-2.55-2.15-0.867-0.567-1.84-1-2.92-1.3-1.087-0.3-2.43-0.45-4.03-0.45v0h-2.35v11.7h-6.6v-25.4l-0.5-4h7.1v12.8h2.8c0.667 0 1.217-0.083 1.65-0.25 0.433-0.167 0.833-0.433 1.2-0.8v0c0.933-0.933 2-2.1 3.2-3.5 1.2-1.4 2.377-2.843 3.53-4.33 1.147-1.48 2.137-2.787 2.97-3.92v0h8.1l-2.05 3c-0.933 0.967-1.933 2.017-3 3.15-1.067 1.133-2.117 2.24-3.15 3.32-1.033 1.087-1.967 2.04-2.8 2.86-0.833 0.813-1.45 1.403-1.85 1.77v0c0.9 0.3 1.727 0.683 2.48 1.15 0.747 0.467 1.67 1.15 2.77 2.05v0c0.833 0.667 1.643 1.35 2.43 2.05 0.78 0.7 1.687 1.533 2.72 2.5v0c1.167 1.067 2.267 1.85 3.3 2.35 1.033 0.5 1.91 0.817 2.63 0.95 0.713 0.133 1.17 0.2 1.37 0.2v0l-1 4.05c-0.1 0.1-0.4 0.21-0.9 0.33-0.5 0.113-1.217 0.17-2.15 0.17zM164.35 32.95h-27.3v-29.4h31.1v4.8h-24.5v6.9h18.7v4.95h-18.7v7.95h24.7l2 4.25c0 0.133-0.45 0.257-1.35 0.37-0.9 0.12-2.45 0.18-4.65 0.18zM199.15 32.95h-23.8l0.5-4v-25.4h6.6v24.6h20.7l2 4.25c0 0.133-0.45 0.257-1.35 0.37-0.9 0.12-2.45 0.18-4.65 0.18z" fill="#4d7e3e" fill-rule="nonzero" stroke="none" stroke-width="1" stroke-linecap="butt" stroke-linejoin="miter" stroke-miterlimit="10" stroke-dasharray="" stroke-dashoffset="0" font-family="none" font-weight="none" font-size="none" text-anchor="none" style="mix-blend-mode: normal" data-fill-palette-color="primary" opacity="1"></path></g></svg></g></svg></g></svg></g></svg></g></svg></g><defs></defs></svg><rect width="395.52" height="89.92502328790752" fill="none" stroke="none" visibility="hidden"></rect></g></svg></g></svg>